<svg width="30" height="30" viewBox="0 0 30 30" fill="none" xmlns="http://www.w3.org/2000/svg">
<path d="M11.0938 3.625L21.625 14.125C21.75 14.25 21.8388 14.3854 21.8913 14.5312C21.9438 14.6771 21.9696 14.8333 21.9688 15C21.9688 15.1667 21.9429 15.3229 21.8913 15.4687C21.8396 15.6146 21.7508 15.75 21.625 15.875L11.0938 26.4063C10.8021 26.6979 10.4375 26.8438 10 26.8438C9.5625 26.8438 9.1875 26.6875 8.875 26.375C8.5625 26.0625 8.40625 25.6979 8.40625 25.2813C8.40625 24.8646 8.5625 24.5 8.875 24.1875L18.0625 15L8.875 5.8125C8.58334 5.52083 8.4375 5.16125 8.4375 4.73375C8.4375 4.30625 8.59375 3.93667 8.90625 3.625C9.21875 3.3125 9.58333 3.15625 10 3.15625C10.4167 3.15625 10.7813 3.3125 11.0938 3.625Z" fill="black"/>
</svg>
