<svg width="40" height="40" viewBox="0 0 40 40" fill="none" xmlns="http://www.w3.org/2000/svg">
<g clip-path="url(#clip0_58_37)">
<path fill-rule="evenodd" clip-rule="evenodd" d="M11.6667 5C9.89856 5 8.20286 5.70238 6.95262 6.95262C5.70238 8.20286 5 9.89856 5 11.6667V28.3333C5 30.1014 5.70238 31.7971 6.95262 33.0474C8.20286 34.2976 9.89856 35 11.6667 35H28.3333C30.1014 35 31.7971 34.2976 33.0474 33.0474C34.2976 31.7971 35 30.1014 35 28.3333V11.6667C35 9.89856 34.2976 8.20286 33.0474 6.95262C31.7971 5.70238 30.1014 5 28.3333 5H11.6667ZM28.8867 16.7583C29.132 16.3906 29.2212 15.9404 29.1346 15.5069C29.048 15.0734 28.7928 14.692 28.425 14.4467C28.0572 14.2013 27.6071 14.1122 27.1735 14.1987C26.74 14.2853 26.3587 14.5406 26.1133 14.9083C25.5233 15.6917 24.905 16.4417 24.1817 17.1083C23.3433 17.8817 22.495 18.4617 21.6683 18.805L21.655 15.6383C21.6072 15.2329 21.4123 14.8591 21.1073 14.5879C20.8022 14.3166 20.4082 14.1667 20 14.1667C19.0967 14.2183 18.3333 14.885 18.3333 15.8333V23.1217C15.0867 22.2217 13.3333 19.0717 13.3333 15.8333C13.3333 15.3913 13.1577 14.9674 12.8452 14.6548C12.5326 14.3423 12.1087 14.1667 11.6667 14.1667C11.2246 14.1667 10.8007 14.3423 10.4882 14.6548C10.1756 14.9674 10 15.3913 10 15.8333C10 21.8867 14.1833 26.6667 20 26.6667C20.442 26.6667 20.8659 26.4911 21.1785 26.1785C21.4911 25.8659 21.6667 25.442 21.6667 25V22.395C23.8867 22.5717 26.04 24.14 26.8433 25.745C26.9369 25.9476 27.0703 26.1294 27.2355 26.2795C27.4007 26.4296 27.5943 26.545 27.8049 26.6189C28.0156 26.6927 28.2389 26.7235 28.4617 26.7094C28.6844 26.6953 28.9021 26.6366 29.1017 26.5368C29.3014 26.437 29.4789 26.2981 29.6239 26.1283C29.7688 25.9586 29.8782 25.7614 29.9455 25.5486C30.0128 25.3358 30.0366 25.1116 30.0157 24.8894C29.9947 24.6672 29.9293 24.4515 29.8233 24.255C29.0267 22.66 27.54 21.1683 25.71 20.195C25.9567 19.9933 26.2017 19.78 26.4433 19.5583C27.3616 18.7209 28.1813 17.7815 28.8867 16.7583Z" fill="black"/>
</g>
<defs>
<clipPath id="clip0_58_37">
<rect width="40" height="40" fill="white"/>
</clipPath>
</defs>
</svg>
